<svg width="115" height="60" viewBox="0 0 115 60" fill="none" xmlns="http://www.w3.org/2000/svg">
<g clip-path="url(#clip0_101_24)">
<path d="M1.1875 25.3906V24.8125H10.2656V25.3906H9.5C8.625 25.3906 7.99479 25.6458 7.60938 26.1562C7.35938 26.4896 7.23438 27.2917 7.23438 28.5625V38.9219C7.23438 40.5365 7.05729 41.8281 6.70312 42.7969C6.52604 43.2865 6.28646 43.7552 5.98438 44.2031C5.68229 44.6406 5.32292 45.0312 4.90625 45.375C4.5 45.7083 4.03125 45.974 3.5 46.1719C2.97917 46.3802 2.41667 46.4844 1.8125 46.4844C1.32292 46.4844 0.880208 46.4167 0.484375 46.2812C0.0989583 46.1458 -0.229167 45.9688 -0.5 45.75C-0.770833 45.5312 -0.979167 45.2812 -1.125 45C-1.27083 44.7083 -1.34375 44.4062 -1.34375 44.0938C-1.34375 43.8021 -1.29688 43.5521 -1.20312 43.3438C-1.10938 43.1354 -0.989583 42.9635 -0.84375 42.8281C-0.6875 42.6927 -0.515625 42.599 -0.328125 42.5469C-0.130208 42.4844 0.0625 42.4531 0.25 42.4531C0.40625 42.4531 0.552083 42.4688 0.6875 42.5C0.833333 42.5312 0.979167 42.6198 1.125 42.7656C1.28125 42.901 1.4375 43.1094 1.59375 43.3906C1.76042 43.6615 1.94792 44.0417 2.15625 44.5312C2.38542 45.0938 2.69271 45.375 3.07812 45.375C3.21354 45.375 3.34896 45.3385 3.48438 45.2656C3.63021 45.1823 3.75521 45.0469 3.85938 44.8594C3.97396 44.6719 4.0625 44.4323 4.125 44.1406C4.19792 43.8385 4.23438 43.4688 4.23438 43.0312V28.5625C4.23438 28.0625 4.22396 27.6562 4.20312 27.3438C4.18229 27.0312 4.14062 26.776 4.07812 26.5781C4.02604 26.3802 3.94271 26.224 3.82812 26.1094C3.71354 25.9844 3.5625 25.8698 3.375 25.7656C2.91667 25.5156 2.44271 25.3906 1.95312 25.3906H1.1875ZM24.0156 31.6875V40.3594C24.0156 42.0365 24.0521 43.0521 24.125 43.4062C24.2083 43.7708 24.3333 44.026 24.5 44.1719C24.6771 44.3177 24.8802 44.3906 25.1094 44.3906C25.4219 44.3906 25.7865 44.3021 26.2031 44.125L26.4219 44.6719L22.1406 46.4375H21.4375V43.4062C20.1979 44.7396 19.2604 45.5781 18.625 45.9219C17.9792 46.2656 17.2969 46.4375 16.5781 46.4375C15.776 46.4375 15.0833 46.2135 14.5 45.7656C13.9167 45.3073 13.5052 44.7031 13.2656 43.9531C13.0365 43.2344 12.9219 42.2031 12.9219 40.8594V34.4688C12.9219 34 12.8802 33.6198 12.7969 33.3281C12.724 33.0365 12.599 32.8125 12.4219 32.6562C12.2448 32.5 12.0104 32.3958 11.7188 32.3438C11.4375 32.2917 11.0938 32.2656 10.6875 32.2656H10.5V31.6875H15.5156V41.2656C15.5156 41.9531 15.5781 42.5104 15.7031 42.9375C15.8385 43.3646 16.0156 43.6979 16.2344 43.9375C16.4531 44.1667 16.7031 44.3229 16.9844 44.4062C17.276 44.4792 17.5781 44.5156 17.8906 44.5156C18.1094 44.5156 18.3438 44.4844 18.5938 44.4219C18.8542 44.3594 19.125 44.25 19.4062 44.0938C19.6979 43.9375 20.0104 43.7292 20.3438 43.4688C20.6771 43.2083 21.0417 42.8802 21.4375 42.4844V34.375C21.4375 33.9688 21.4062 33.6354 21.3438 33.375C21.2812 33.1042 21.1615 32.8906 20.9844 32.7344C20.8177 32.5677 20.5833 32.4531 20.2812 32.3906C19.9896 32.3177 19.6094 32.276 19.1406 32.2656V31.6875H24.0156ZM37.5781 44.3906C36.8802 45.1198 36.1979 45.6458 35.5312 45.9688C34.875 46.2812 34.1562 46.4375 33.375 46.4375C32.5938 46.4375 31.849 46.2656 31.1406 45.9219C30.4427 45.5677 29.8229 45.0833 29.2812 44.4688C28.75 43.8438 28.3229 43.1042 28 42.25C27.6875 41.3958 27.5312 40.4583 27.5312 39.4375C27.5312 37.3854 28.1771 35.5104 29.4688 33.8125C30.7708 32.1042 32.4323 31.25 34.4531 31.25C35.7031 31.25 36.7448 31.651 37.5781 32.4531V27.7656C37.5781 27.5781 37.5833 27.375 37.5938 27.1562C37.6146 26.9271 37.599 26.7135 37.5469 26.5156C37.4948 26.3177 37.3906 26.1562 37.2344 26.0312C37.0781 25.8958 36.8229 25.8281 36.4688 25.8281C36.1875 25.8281 35.8281 25.9115 35.3906 26.0781L35.1875 25.5312L39.4531 23.7812H40.1562V40.3281C40.1562 42.026 40.1927 43.0521 40.2656 43.4062C40.349 43.7708 40.474 44.026 40.6406 44.1719C40.8177 44.3177 41.0208 44.3906 41.25 44.3906C41.5208 44.3906 41.8958 44.3021 42.375 44.125L42.5469 44.6719L38.2969 46.4375H37.5781V44.3906ZM37.5781 43.2969V35.9219C37.526 35.3281 37.3906 34.8021 37.1719 34.3438C36.9635 33.8854 36.7031 33.5 36.3906 33.1875C36.0885 32.8646 35.75 32.625 35.375 32.4688C35.0104 32.3021 34.6406 32.2188 34.2656 32.2188C33.7135 32.2188 33.2031 32.3646 32.7344 32.6562C32.2656 32.9375 31.8542 33.3438 31.5 33.875C31.1562 34.3958 30.8854 35.026 30.6875 35.7656C30.4896 36.4948 30.3906 37.3073 30.3906 38.2031C30.3906 39.2552 30.5156 40.1875 30.7656 41C31.026 41.8125 31.3646 42.4948 31.7812 43.0469C32.1979 43.599 32.6719 44.0156 33.2031 44.2969C33.7344 44.5781 34.276 44.7188 34.8281 44.7188C35.776 44.7188 36.6927 44.2448 37.5781 43.2969ZM45.875 37.0781C45.875 38.1406 46.0156 39.0938 46.2969 39.9375C46.5781 40.7812 46.9583 41.5 47.4375 42.0938C47.9167 42.6771 48.4688 43.125 49.0938 43.4375C49.7292 43.7396 50.3958 43.8906 51.0938 43.8906C52.0312 43.8906 52.8438 43.6354 53.5312 43.125C54.2292 42.6042 54.8125 41.7188 55.2812 40.4688L55.7656 40.7812C55.651 41.4792 55.4323 42.1667 55.1094 42.8438C54.7865 43.5208 54.3698 44.125 53.8594 44.6562C53.3594 45.1875 52.7708 45.6198 52.0938 45.9531C51.4271 46.276 50.6979 46.4375 49.9062 46.4375C49.0521 46.4375 48.2448 46.2656 47.4844 45.9219C46.7344 45.5677 46.0729 45.0729 45.5 44.4375C44.9375 43.7917 44.4896 43.0156 44.1562 42.1094C43.8229 41.1927 43.6562 40.1667 43.6562 39.0312C43.6562 37.7917 43.8229 36.6927 44.1562 35.7344C44.5 34.7656 44.9688 33.9479 45.5625 33.2812C46.1562 32.6146 46.8542 32.1094 47.6562 31.7656C48.4688 31.4219 49.3385 31.25 50.2656 31.25C51.0573 31.25 51.7865 31.3906 52.4531 31.6719C53.1302 31.9427 53.7135 32.3333 54.2031 32.8438C54.6927 33.3542 55.0729 33.9688 55.3438 34.6875C55.625 35.3958 55.7656 36.1927 55.7656 37.0781H45.875ZM45.875 36.1719H52.5C52.4583 35.2552 52.349 34.6094 52.1719 34.2344C51.9115 33.651 51.5208 33.1927 51 32.8594C50.4896 32.526 49.9531 32.3594 49.3906 32.3594C48.9635 32.3594 48.5521 32.4479 48.1562 32.625C47.7604 32.7917 47.401 33.0417 47.0781 33.375C46.7552 33.6979 46.4844 34.0938 46.2656 34.5625C46.0573 35.0312 45.9271 35.5677 45.875 36.1719ZM61.9375 34.3125C62.9792 33.2708 63.5938 32.6719 63.7812 32.5156C64.25 32.1198 64.7552 31.8125 65.2969 31.5938C65.8385 31.375 66.375 31.2656 66.9062 31.2656C67.8125 31.2656 68.5833 31.526 69.2188 32.0469C69.8646 32.5573 70.2969 33.3125 70.5156 34.3125C71.5885 33.0729 72.4948 32.2552 73.2344 31.8594C73.974 31.4635 74.7344 31.2656 75.5156 31.2656C76.0365 31.2656 76.526 31.3542 76.9844 31.5312C77.4427 31.7083 77.8385 32.0052 78.1719 32.4219C78.5156 32.8281 78.7865 33.375 78.9844 34.0625C79.1823 34.75 79.2812 35.599 79.2812 36.6094V42.7656C79.2812 43.2344 79.2917 43.6406 79.3125 43.9844C79.3438 44.3177 79.4271 44.5938 79.5625 44.8125C79.6979 45.0312 79.9115 45.1927 80.2031 45.2969C80.4948 45.3906 80.9062 45.4375 81.4375 45.4375V46H74.375V45.4375H74.6719C75.1927 45.4375 75.6146 45.3542 75.9375 45.1875C76.2604 45.0208 76.4896 44.7188 76.625 44.2812C76.6667 44.125 76.6875 43.6198 76.6875 42.7656V36.6094C76.6875 35.9219 76.6354 35.3594 76.5312 34.9219C76.4271 34.474 76.2708 34.1198 76.0625 33.8594C75.8646 33.5885 75.6198 33.401 75.3281 33.2969C75.0365 33.1927 74.6979 33.1406 74.3125 33.1406C74.0312 33.1406 73.7552 33.1719 73.4844 33.2344C73.224 33.2969 72.9479 33.4062 72.6562 33.5625C72.3646 33.7188 72.0469 33.9271 71.7031 34.1875C71.3698 34.4375 71 34.7552 70.5938 35.1406L70.625 42.7656C70.625 43.276 70.6354 43.6771 70.6562 43.9688C70.6771 44.25 70.7135 44.4688 70.7656 44.625C70.8281 44.7708 70.9115 44.8802 71.0156 44.9531C71.1198 45.026 71.25 45.1094 71.4062 45.2031C71.5521 45.2865 71.7552 45.349 72.0156 45.3906C72.276 45.4219 72.5885 45.4375 72.9531 45.4375V46H65.7188V45.4375C66.2812 45.4375 66.7188 45.401 67.0312 45.3281C67.3542 45.2448 67.5885 45.1042 67.7344 44.9062C67.8802 44.6979 67.9688 44.4219 68 44.0781C68.0312 43.7344 68.0469 43.2969 68.0469 42.7656V36.6094C68.0469 35.9427 67.9844 35.3854 67.8594 34.9375C67.7448 34.4896 67.5781 34.1302 67.3594 33.8594C67.1406 33.5885 66.8802 33.3958 66.5781 33.2812C66.2865 33.1562 65.9635 33.0938 65.6094 33.0938C65.2656 33.0938 64.9115 33.1615 64.5469 33.2969C64.1823 33.4219 63.8333 33.5833 63.5 33.7812C63.1771 33.9688 62.8802 34.1823 62.6094 34.4219C62.3385 34.651 62.1146 34.875 61.9375 35.0938V42.7656C61.9375 43.2552 61.9531 43.6458 61.9844 43.9375C62.0156 44.2188 62.0625 44.4479 62.125 44.625C62.1875 44.7917 62.2656 44.9167 62.3594 45C62.4635 45.0833 62.5781 45.1615 62.7031 45.2344C62.9635 45.3698 63.4844 45.4375 64.2656 45.4375V46H57.1875V45.4375C57.6667 45.4375 58.0469 45.401 58.3281 45.3281C58.6198 45.2552 58.8385 45.125 58.9844 44.9375C59.1406 44.7396 59.2396 44.4688 59.2812 44.125C59.3333 43.7708 59.3594 43.3177 59.3594 42.7656V37.2969C59.3594 36.3698 59.3438 35.6458 59.3125 35.125C59.2812 34.5938 59.224 34.1979 59.1406 33.9375C59.0573 33.6667 58.9427 33.5 58.7969 33.4375C58.651 33.375 58.4635 33.3438 58.2344 33.3438C57.9427 33.3438 57.5938 33.4219 57.1875 33.5781L56.9531 33.0156L61.2656 31.2656H61.9375V34.3125ZM81.7812 31.6875H88.4531V32.2656H88.125C87.6562 32.2656 87.3021 32.3698 87.0625 32.5781C86.8333 32.776 86.7188 33.026 86.7188 33.3281C86.7188 33.7344 86.8906 34.2969 87.2344 35.0156L90.7188 42.2344L93.9219 34.3281C94.099 33.8906 94.1875 33.4688 94.1875 33.0625C94.1875 32.9375 94.1719 32.8281 94.1406 32.7344C94.1094 32.6406 94.0417 32.5573 93.9375 32.4844C93.8438 32.4115 93.6979 32.3594 93.5 32.3281C93.3125 32.2865 93.0625 32.2656 92.75 32.2656V31.6875H97.4062V32.2656C97.1354 32.2969 96.9115 32.3385 96.7344 32.3906C96.5573 32.4323 96.3906 32.526 96.2344 32.6719C96.0885 32.8073 95.9427 33.0156 95.7969 33.2969C95.6615 33.5677 95.4948 33.9427 95.2969 34.4219L89.4688 48.7031C89.1875 49.3906 88.8542 49.9948 88.4688 50.5156C88.0833 51.0469 87.6771 51.4844 87.25 51.8281C86.8229 52.1823 86.3802 52.4479 85.9219 52.625C85.474 52.8125 85.0417 52.9062 84.625 52.9062C84.3125 52.9062 84.026 52.8542 83.7656 52.75C83.5156 52.6562 83.2969 52.526 83.1094 52.3594C82.9219 52.2031 82.776 52.0208 82.6719 51.8125C82.5677 51.6042 82.5156 51.3854 82.5156 51.1562C82.5156 50.7188 82.6562 50.3646 82.9375 50.0938C83.2292 49.8333 83.625 49.7031 84.125 49.7031C84.2396 49.7031 84.4062 49.7344 84.625 49.7969C84.8542 49.8594 85.0833 49.9219 85.3125 49.9844C85.5521 50.0573 85.7656 50.125 85.9531 50.1875C86.1406 50.25 86.2604 50.2812 86.3125 50.2812C86.4688 50.2812 86.6302 50.2448 86.7969 50.1719C86.974 50.099 87.151 49.974 87.3281 49.7969C87.5156 49.6198 87.7031 49.375 87.8906 49.0625C88.0781 48.7604 88.2656 48.3802 88.4531 47.9219L89.4688 45.4375L84.3281 34.6406C84.276 34.526 84.1875 34.375 84.0625 34.1875C83.9479 33.9896 83.8229 33.7917 83.6875 33.5938C83.5521 33.3958 83.4167 33.2135 83.2812 33.0469C83.1458 32.8802 83.0312 32.7656 82.9375 32.7031C82.7188 32.5365 82.3333 32.3906 81.7812 32.2656V31.6875Z" fill="black"/>
<path d="M14.7701 28.8626C14.9935 28.9817 15.2318 28.7211 15.0903 28.5126C14.3456 27.3583 13.6456 25.4073 14.7626 22.9053C16.6317 18.7277 17.771 16.5608 17.771 16.5608C17.771 16.5608 18.3742 19.0852 20.0199 21.334C21.5986 23.4936 22.4624 26.2116 21.0699 28.4753C20.9358 28.6913 21.1667 28.937 21.3901 28.8253C23.1177 27.9466 25.0464 26.1743 25.2698 22.6521C25.3517 21.5798 25.2325 20.0681 24.6294 18.1692C23.8549 15.764 22.9017 14.6396 22.3507 14.1555C22.1869 14.014 21.9262 14.1406 21.9411 14.3566C22.105 16.9555 21.122 17.6182 20.571 16.1289C20.3476 15.5332 20.221 14.5055 20.221 13.2545C20.221 11.1694 19.6178 9.03227 18.2849 7.28977C17.9349 6.83553 17.5328 6.41107 17.0711 6.05364C16.8998 5.9196 16.6615 6.05364 16.6764 6.26959C16.7806 7.68444 16.6838 11.7279 13.1393 16.5608C9.92233 21.0436 11.1659 24.484 11.6127 25.4148C12.4393 27.202 13.6233 28.2519 14.7701 28.8626Z" fill="#FCAF19"/>
</g>
<defs>
<clipPath id="clip0_101_24">
<rect width="114.73" height="62.05" fill="white" transform="translate(0 -3)"/>
</clipPath>
</defs>
</svg>
